<svg xmlns="http://www.w3.org/2000/svg" data-name="Layer 1" viewBox="0 0 100 125" x="0px" y="0px"><path d="M96,43.21H87a7,7,0,0,0-7,7V73.36a8,8,0,0,1-8,8H28a8,8,0,0,1-8-8V50.21a7,7,0,0,0-7-7H4a2,2,0,1,0,0,4h9a3,3,0,0,1,3,3V73.36a12,12,0,0,0,12,12H72a12,12,0,0,0,12-12V50.21a3,3,0,0,1,3-3h9a2,2,0,0,0,0-4Z"/><path d="M50,14.64a2,2,0,0,0-2,2V65.49l-14-13a2,2,0,1,0-2.72,2.93L48.64,71.54l.13.1.14.11.19.1.15.07.22.07.14,0a1.92,1.92,0,0,0,.77,0l.14,0,.22-.07.15-.07.19-.1.14-.11.13-.1L68.69,55.47A2,2,0,0,0,66,52.54l-14,13V16.64A2,2,0,0,0,50,14.64Z"/></svg>